/* XPM */
static char * ico_netw_32x32_xpm[] = {
"32 32 12 1",
" 	c None",
".	c #808000",
"+	c #C0C0C0",
"@	c #FF0000",
"#	c #808080",
"$	c #FFFF00",
"%	c #008000",
"&	c #00FF00",
"*	c #000000",
"=	c #000080",
"-	c #0000FF",
";	c #800000",
"                         .      ",
"                      ....  +   ",
"                  .......@ ++  +",
"              ......... @@;++ ++",
"        @@;.........   @@@@++++ ",
"        @@@;.....      @@@+++   ",
" ****   @@@;...       @@@+++;   ",
" ****   @@@;         @@@+++@@@  ",
"*****   @@@@;        @@+++@@@@  ",
"*****   @@@@;      ;;;+++@@@@;  ",
"*****$  @@@@;    ;;;;+++@@@@;;  ",
"*****$$$@@@@@; ;;;;;+++@@@@;;   ",
"*****$$$@@@@@@;;;;;+++;@@@;;;   ",
" ****$$@@@@@@@@;$++++;;@@;;;;   ",
" ***  @@@@@@@@@@;+$++;@@;;;;    ",
" ***  @%%%@@@@@@@;;++@@;;;;;    ",
" ***   &&%%@***@@@;;@;;;;;;     ",
" **#   &%%%@****@@;@;;;;;;      ",
"      &&@@@@@***@@@;;;;;;       ",
"     && ###@@@@@@@;;;;;;        ",
"    &&  ++##@@@@@@;;;;;         ",
"    &  ++###@===@@;;;;          ",
"   &&  + @@@@--==@;;;           ",
"   &  ++  @@--===@;;;           ",
"   &  +   @@-@@@@@;;            ",
"   &  +    --@@@@;;             ",
"  &&  ++   --  @@;              ",
"  &    +    -       ----        ",
"  &    ++   --    ---  ---      ",
"  &     +    --  --      --     ",
"  &     ++    ----        --    ",
" &&     +                  --   "};
