/* XPM */
static char * ico_netw_16x16_xpm[] = {
"16 16 4 1",
" 	c None",
".	c #FF0000",
"+	c #800000",
"@	c #808000",
"         @@@@   ",
"      @@@@@@.   ",
"  .@@@@@@  ...  ",
"  .+@@     .... ",
"  .+     +.....+",
"  ..+   +++....+",
"  ..+ ++++++..++",
" ....++++++..+++",
" ......+++..+++ ",
"........+..++++ ",
"..........++++  ",
" ........++++   ",
"  ......++++    ",
"   .....+++     ",
"   .....++      ",
"    ...++       "};
